# xmcd CD database file
#
# Track frame offsets:
#	183
#	18257
#	40258
#	61438
#	81030
#	103870
#	122012
#	152931
#	172902
#	190783
#	209452
#	222893
#	242683
#	267328
#
# Disc length: 3883 seconds
#
# Revision: 0
# Processed by: cddbd v1.5.2PL0 Copyright (c) Steve Scherf et al.
# Submitted via: CDex 1.70beta2
#
DISCID=bf0f290e
DTITLE=Life is Jazz - Life is Jazz
DYEAR=2005
DGENRE=Jazz
TTITLE0=Jab - Monkey king song
TTITLE1=New mastersounds - Idle time
TTITLE2=Eddy Roberts - Eazin down
TTITLE3=Klement Julienne - Possoz Boogie
TTITLE4=Franck Biyong - Power brain
TTITLE5=Metropolitan Jazz Affair - The lost syndicate
TTITLE6=Food - Heart and soul
TTITLE7=Hi Perspective - Ya houbi
TTITLE8=Philippe Gonnand - Dance floor
TTITLE9=Metropolitan Jazz Affair - Navaronne
TTITLE10=Christophe Gauthier - Indian trumpet
TTITLE11=Elektrotwist - Zugzwang
TTITLE12=Franck Biyong - We shall overcome
TTITLE13=Eddy Roberts - Every goodbye
EXTD=YEAR: 2005
EXTT0=
EXTT1=
EXTT2=
EXTT3=
EXTT4=
EXTT5=
EXTT6=
EXTT7=
EXTT8=
EXTT9=
EXTT10=
EXTT11=
EXTT12=
EXTT13=
PLAYORDER=
